<?xml version="1.0" standalone="no"?>
<!DOCTYPE svg PUBLIC "-//W3C//DTD SVG 1.0//EN" "http://www.w3.org/TR/2001/REC-SVG-20010904/DTD/svg10.dtd">
<svg xmlns="http://www.w3.org/2000/svg" xmlns:xlink="http://www.w3.org/1999/xlink" id="body_4" width="935" height="112">

<defs>
    <clipPath  id="1">

    <path id=""  clip-rule="evenodd" transform="matrix(1 0 0 1 0 0)"  d="M0 84L0 -0.75L0 -0.75L701.25 -0.75L701.25 -0.75L701.25 84L701.25 84L0 84z" />    </clipPath>
</defs>

<g transform="matrix(1.3333 0 0 1.3333 0 0)">
	<g clip-path="url(#1)" >
    <path id=""  transform="matrix(1 0 0 -1 0 84)"  d="M0 84.75C 211.3035 -36.01201 519.74774 -20.211754 701.25 84.75L701.25 84.75L701.25 84.75L701.25 84.75L0 84.75z" stroke="#FFFFFF" stroke-width="1" fill="#0015CE" fill-rule="nonzero" />
    <path id=""  transform="matrix(1 0 0 -1 0 84)"  d="M433.254 58.090874L433.254 58.090874L433.254 58.090874L433.254 58.090874L433.254 58.090874L433.254 39L433.254 39L433.254 39L433.254 39L429.33902 39L429.33902 39L421.74152 50.018326L421.74152 50.018326L421.74152 50.018326L421.74152 50.018326L421.62 50.018326L421.62 50.018326L421.62 50.018326L421.62 50.018326L421.62 39L421.62 39L421.62 39L421.62 39L417.00598 39L417.00598 39L417.00598 39L417.00598 39L417.00598 58.090874L417.00598 58.090874L417.00598 58.090874L417.00598 58.090874L420.97723 58.090874L420.97723 58.090874L428.49072 47.0913L428.49072 47.0913L428.49072 47.0913L428.49072 47.0913L428.649 47.0913L428.649 47.0913L428.649 47.0913L428.649 47.0913L428.649 58.090874L428.649 58.090874L428.649 58.090874L428.649 58.090874L433.254 58.090874zM410.12027 48.545475C 410.12027 49.788376 409.94324 50.8386 409.58926 51.696224L409.58926 51.696224L409.58926 51.696224C 409.24127 52.553776 408.73724 53.2032 408.07874 53.644424L408.07874 53.644424L408.07874 53.644424C 407.42624 54.08565 406.64026 54.3063 405.72076 54.3063L405.72076 54.3063L405.72076 54.3063C 404.80725 54.3063 404.02048 54.08565 403.362 53.644424L403.362 53.644424L403.362 53.644424C 402.7035 53.2032 402.19653 52.553776 401.84247 51.696224L401.84247 51.696224L401.84247 51.696224C 401.4945 50.8386 401.3205 49.788376 401.3205 48.545475L401.3205 48.545475L401.3205 48.545475C 401.3205 47.302574 401.4945 46.252274 401.84247 45.394722L401.84247 45.394722L401.84247 45.394722C 402.19653 44.5371 402.7035 43.887672 403.362 43.44645L403.362 43.44645L403.362 43.44645C 404.02048 43.005226 404.80725 42.78465 405.72076 42.78465L405.72076 42.78465L405.72076 42.78465C 406.64026 42.78465 407.42624 43.005226 408.07874 43.44645L408.07874 43.44645L408.07874 43.44645C 408.73724 43.887672 409.24127 44.5371 409.58926 45.394722L409.58926 45.394722L409.58926 45.394722C 409.94324 46.252274 410.12027 47.302574 410.12027 48.545475zM414.83704 48.545475C 414.83704 46.44495 414.4335 44.664524 413.625 43.204124L413.625 43.204124L413.625 43.204124C 412.81723 41.743725 411.72375 40.6344 410.34375 39.876225L410.34375 39.876225L410.34375 39.876225C 408.97052 39.11805 407.42926 38.739 405.72076 38.739L405.72076 38.739L405.72076 38.739C 404.0055 38.739 402.46124 39.1212 401.08728 39.8856L401.08728 39.8856L401.08728 39.8856C 399.71402 40.649925 398.62347 41.75925 397.81577 43.213425L397.81577 43.213425L397.81577 43.213425C 397.01398 44.67383 396.6135 46.45117 396.6135 48.545475L396.6135 48.545475L396.6135 48.545475C 396.6135 50.645927 397.01398 52.426426 397.81577 53.886826L397.81577 53.886826L397.81577 53.886826C 398.62347 55.347225 399.71402 56.456474 401.08728 57.214653L401.08728 57.214653L401.08728 57.214653C 402.46124 57.972824 404.0055 58.35195 405.72076 58.35195L405.72076 58.35195L405.72076 58.35195C 407.42926 58.35195 408.97052 57.972824 410.34375 57.214653L410.34375 57.214653L410.34375 57.214653C 411.72375 56.456474 412.81723 55.347225 413.625 53.886826L413.625 53.886826L413.625 53.886826C 414.4335 52.426426 414.83704 50.645927 414.83704 48.545475zM394.44678 58.090874L394.44678 58.090874L394.44678 58.090874L394.44678 58.090874L394.44678 58.090874L394.44678 39L394.44678 39L394.44678 39L394.44678 39L389.832 39L389.832 39L389.832 39L389.832 39L389.832 58.090874L389.832 58.090874L389.832 58.090874L389.832 58.090874L394.44678 58.090874zM371.96774 54.343575L371.96774 54.343575L371.96774 54.343575L371.96774 54.343575L371.96774 54.343575L371.96774 58.090874L371.96774 58.090874L371.96774 58.090874L371.96774 58.090874L388.104 58.090874L388.104 58.090874L388.104 58.090874L388.104 58.090874L388.104 54.343575L388.104 54.343575L388.104 54.343575L388.104 54.343575L382.31476 54.343575L382.31476 54.343575L382.31476 54.343575L382.31476 54.343575L382.31476 39L382.31476 39L382.31476 39L382.31476 39L377.766 39L377.766 39L377.766 39L377.766 39L377.766 54.343575L377.766 54.343575L377.766 54.343575L377.766 54.343575L371.96774 54.343575zM358.7175 46.51335L358.7175 46.51335L358.7175 46.51335L358.7175 46.51335L358.7175 46.51335L369.08325 46.51335L369.08325 46.51335L369.08325 46.51335L369.08325 46.51335L369.08325 43.008377L369.08325 43.008377L369.08325 43.008377L369.08325 43.008377L358.7175 43.008377L358.7175 43.008377L358.7175 43.008377L358.7175 43.008377L358.7175 46.51335zM359.37976 39L359.37976 39L359.37976 39L359.37976 39L359.37976 39L354.41998 39L354.41998 39L360.86176 58.090874L360.86176 58.090874L360.86176 58.090874L360.86176 58.090874L367.00424 58.090874L367.00424 58.090874L373.446 39L373.446 39L373.446 39L373.446 39L368.487 39L368.487 39L364.00275 53.2809L364.00275 53.2809L364.00275 53.2809L364.00275 53.2809L363.85352 53.2809L363.85352 53.2809L359.37976 39zM353.62125 51.17415L353.62125 51.17415L353.62125 51.17415L353.62125 51.17415L353.62125 51.17415L348.96075 51.17415L348.96075 51.17415L348.96075 51.17415C 348.8985 51.652725 348.771 52.08457 348.57825 52.469925L348.57825 52.469925L348.57825 52.469925C 348.3855 52.855198 348.13123 53.1846 347.81403 53.457977L347.81403 53.457977L347.81403 53.457977C 347.4975 53.731422 347.121 53.939625 346.68597 54.082573L346.68597 54.082573L346.68597 54.082573C 346.25775 54.231674 345.78226 54.3063 345.26025 54.3063L345.26025 54.3063L345.26025 54.3063C 344.33398 54.3063 343.53525 54.079426 342.864 53.625824L342.864 53.625824L342.864 53.625824C 342.1995 53.17215 341.6865 52.5165 341.32648 51.65895L341.32648 51.65895L341.32648 51.65895C 340.97174 50.801323 340.79474 49.763474 340.79474 48.545475L340.79474 48.545475L340.79474 48.545475C 340.79474 47.277676 340.97473 46.215 341.3355 45.357452L341.3355 45.357452L341.3355 45.357452C 341.70224 44.50605 342.21524 43.86285 342.87375 43.42785L342.87375 43.42785L342.87375 43.42785C 343.53824 42.999 344.325 42.78465 345.23175 42.78465L345.23175 42.78465L345.23175 42.78465C 345.74176 42.78465 346.2045 42.8499 346.62076 42.9804L346.62076 42.9804L346.62076 42.9804C 347.04376 43.1109 347.41348 43.300423 347.73 43.548973L347.73 43.548973L347.73 43.548973C 348.05325 43.803825 348.31726 44.1114 348.52274 44.471848L348.52274 44.471848L348.52274 44.471848C 348.73425 44.838524 348.87976 45.251778 348.96075 45.711674L348.96075 45.711674L353.62125 45.6837C 353.54102 44.838524 353.29498 44.0058 352.8855 43.18545L352.8855 43.18545L352.8855 43.18545C 352.48126 42.365173 351.92474 41.6163 351.21674 40.9389L351.21674 40.9389L351.21674 40.9389C 350.508 40.267723 349.64398 39.733276 348.62552 39.33555L348.62552 39.33555L348.62552 39.33555C 347.61224 38.937824 346.44977 38.739 345.13873 38.739L345.13873 38.739L345.13873 38.739C 343.4115 38.739 341.8635 39.11805 340.49625 39.876225L340.49625 39.876225L340.49625 39.876225C 339.13574 40.640625 338.06024 41.753025 337.27124 43.213425L337.27124 43.213425L337.27124 43.213425C 336.48224 44.67383 336.08777 46.45117 336.08777 48.545475L336.08777 48.545475L336.08777 48.545475C 336.08777 50.645927 336.48825 52.426426 337.29 53.886826L337.29 53.886826L337.29 53.886826C 338.09174 55.347225 339.17624 56.456474 340.54352 57.214653L340.54352 57.214653L340.54352 57.214653C 341.91077 57.972824 343.44226 58.35195 345.13873 58.35195L345.13873 58.35195L345.13873 58.35195C 346.2945 58.35195 347.36325 58.190327 348.34576 57.86715L348.34576 57.86715L348.34576 57.86715C 349.32748 57.550274 350.1915 57.084152 350.93698 56.468925L350.93698 56.468925L350.93698 56.468925C 351.6825 55.859924 352.28848 55.11105 352.755 54.222374L352.755 54.222374L352.755 54.222374C 353.22076 53.3337 353.50952 52.317677 353.62125 51.17415zM329.3205 58.090874L329.3205 58.090874L329.3205 58.090874L329.3205 58.090874L329.3205 58.090874L333.9255 58.090874L333.9255 58.090874L333.9255 58.090874L333.9255 58.090874L333.9255 45.776924L333.9255 45.776924L333.9255 45.776924C 333.9255 44.3538 333.58652 43.113976 332.90924 42.057526L332.90924 42.057526L332.90924 42.057526C 332.232 41.0073 331.287 40.193176 330.07574 39.615227L330.07574 39.615227L330.07574 39.615227C 328.86374 39.0435 327.456 38.7576 325.8525 38.7576L325.8525 38.7576L325.8525 38.7576C 324.23102 38.7576 322.81427 39.0435 321.60226 39.615227L321.60226 39.615227L321.60226 39.615227C 320.39026 40.193176 319.449 41.0073 318.77774 42.057526L318.77774 42.057526L318.77774 42.057526C 318.1065 43.113976 317.7705 44.3538 317.7705 45.776924L317.7705 45.776924L317.7705 45.776924L317.7705 45.776924L317.7705 58.090874L317.7705 58.090874L317.7705 58.090874L317.7705 58.090874L322.38525 58.090874L322.38525 58.090874L322.38525 58.090874L322.38525 58.090874L322.38525 46.177727L322.38525 46.177727L322.38525 46.177727C 322.38525 45.519 322.52774 44.93175 322.81427 44.4159L322.81427 44.4159L322.81427 44.4159C 323.10602 43.900124 323.51324 43.496174 324.03525 43.204124L324.03525 43.204124L324.03525 43.204124C 324.55725 42.912 325.16324 42.765976 325.8525 42.765976L325.8525 42.765976L325.8525 42.765976C 326.5425 42.765976 327.1455 42.912 327.6615 43.204124L327.6615 43.204124L327.6615 43.204124C 328.1835 43.496174 328.59 43.900124 328.8825 44.4159L328.8825 44.4159L328.8825 44.4159C 329.17426 44.93175 329.3205 45.519 329.3205 46.177727L329.3205 46.177727L329.3205 46.177727L329.3205 46.177727L329.3205 58.090874zM303.73502 42.93375L303.73502 42.93375L303.73502 42.93375L303.73502 42.93375L303.73502 42.93375L306.00076 42.93375L306.00076 42.93375L306.00076 42.93375C 307.0695 42.93375 307.97327 43.113976 308.71277 43.474426L308.71277 43.474426L308.71277 43.474426C 309.45898 43.8411 310.02148 44.434578 310.40027 45.254852L310.40027 45.254852L310.40027 45.254852C 310.78577 46.081425 310.97852 47.181374 310.97852 48.554775L310.97852 48.554775L310.97852 48.554775C 310.97852 49.928177 310.78577 51.0219 310.40027 51.836025L310.40027 51.836025L310.40027 51.836025C 310.01474 52.656376 309.44626 53.2467 308.69473 53.60715L308.69473 53.60715L308.69473 53.60715C 307.9485 53.973824 307.029 54.157124 305.9355 54.157124L305.9355 54.157124L305.9355 54.157124L305.9355 54.157124L303.73502 54.157124L303.73502 54.157124L303.73502 54.157124L303.73502 54.157124L303.73502 42.93375zM306.17773 39L306.17773 39L306.17773 39L306.17773 39L306.17773 39L299.121 39L299.121 39L299.121 39L299.121 39L299.121 58.090874L299.121 58.090874L299.121 58.090874L299.121 58.090874L306.168 58.090874L306.168 58.090874L306.168 58.090874C 308.1135 58.090874 309.78824 57.708748 311.193 56.94435L311.193 56.94435L311.193 56.94435C 312.603 56.186176 313.69125 55.09245 314.4555 53.6631L314.4555 53.6631L314.4555 53.6631C 315.21976 52.239975 315.6015 50.537174 315.6015 48.554775L315.6015 48.554775L315.6015 48.554775C 315.6015 46.56615 315.21976 44.857124 314.4555 43.42785L314.4555 43.42785L314.4555 43.42785C 313.69727 41.9985 312.61273 40.901627 311.202 40.137226L311.202 40.137226L311.202 40.137226C 309.79126 39.37905 308.1165 39 306.17773 39zM283.4445 39L283.4445 39L283.4445 39L283.4445 39L283.4445 39L283.4445 58.090874L283.4445 58.090874L283.4445 58.090874L283.4445 58.090874L296.75623 58.090874L296.75623 58.090874L296.75623 58.090874L296.75623 58.090874L296.75623 54.343575L296.75623 54.343575L296.75623 54.343575L296.75623 54.343575L288.05927 54.343575L288.05927 54.343575L288.05927 54.343575L288.05927 54.343575L288.05927 50.428425L288.05927 50.428425L288.05927 50.428425L288.05927 50.428425L296.076 50.428425L296.076 50.428425L296.076 50.428425L296.076 50.428425L296.076 46.67175L296.076 46.67175L296.076 46.67175L296.076 46.67175L288.05927 46.67175L288.05927 46.67175L288.05927 46.67175L288.05927 46.67175L288.05927 42.7473L288.05927 42.7473L288.05927 42.7473L288.05927 42.7473L296.75623 42.7473L296.75623 42.7473L296.75623 42.7473L296.75623 42.7473L296.75623 39L296.75623 39L296.75623 39L296.75623 39L283.4445 39z" stroke="#FFFFFF" stroke-width="1" fill="#FFFFFF" fill-rule="nonzero" />
	</g>
</g>
</svg>